<?xml version="1.0" encoding="UTF-8" standalone="no"?>
<svg xmlns:inkscape="http://www.inkscape.org/namespaces/inkscape" xmlns:sodipodi="http://sodipodi.sourceforge.net/DTD/sodipodi-0.dtd" xmlns="http://www.w3.org/2000/svg" xmlns:svg="http://www.w3.org/2000/svg" width="856.79553" height="200" viewBox="0 0 856.79553 200" fill="none" version="1.1" id="svg211" sodipodi:docname="Conduktor_logo.svg" inkscape:version="1.2.2 (b0a84865, 2022-12-01)">
  <g clip-path="url(#clip0_604_533)" id="g204" transform="matrix(6.25,0,0,6.25,-0.2044675,-5.6640625)">
    <path d="M 20.616,15.069 V 11.8783 L 16.263,7.26495 13.2629,6.72879 V 3.49468 0.90625 L 6.38461,7.65396 0.0327148,21.7243 9.90884,24.6789 5.72942,19.7006 8.3042,8.85634 11.6388,4.70162 v 6.70778 l -3.3346,2.8702 7.6439,2.374 2.1161,-1.2595 2.8944,2.2029 c -0.1978,0.8601 0.2505,1.7385 1.0678,2.0876 l 0.0333,0.0148 c -0.7023,1.1979 -1.8782,1.1865 -3.2437,0.6948 l -4.2783,-1.8652 -1.7035,1.8652 3.5748,4.1102 -3.5484,3.4189 -9.3232,-2.9044 7.2853,7.8874 7.9703,-5.7302 v -4.4775 c 2.892,0.7666 4.8173,-0.7085 5.5633,-4.1331 z m -4.0748,-0.64 -2.1978,-1.9233 h 2.8817 l 0.6954,1.1248 z" fill="#1d1d23" id="path182"></path>
    <path d="m 20.6158,3.54695 -3.4459,3.16794 3.4459,3.60831 z" fill="#1d1d23" id="path184"></path>
    <path d="m 135.371,15.4413 c -2.196,0 -2.913,1.925 -2.913,4.51 v 5.36 h -2.318 v -11.845 h 2.318 v 2.28 c 0.549,-1.575 1.505,-2.28 3.203,-2.28 h 1.459 v 1.975 h -1.744 z" fill="#1d1d23" id="path186"></path>
    <path d="m 122.449,25.5013 c -3.61,0 -6.213,-2.56 -6.213,-6.11 0,-3.55 2.603,-6.1101 6.213,-6.1101 3.609,0 6.186,2.5601 6.186,6.1101 0,3.55 -2.582,6.11 -6.186,6.11 z m -3.849,-6.11 c 0,2.42 1.556,4.115 3.849,4.115 2.292,0 3.823,-1.69 3.823,-4.115 0,-2.425 -1.556,-4.11 -3.823,-4.11 -2.268,0 -3.849,1.69 -3.849,4.11 z" fill="#1d1d23" id="path188"></path>
    <path d="m 109.698,9.75635 h 2.318 v 3.71495 h 3.559 v 1.975 h -3.559 v 5.92 c 0,1.27 0.717,1.975 1.866,1.975 h 1.698 v 1.975 h -1.866 c -2.435,0 -4.016,-1.455 -4.016,-3.88 v -5.99 h -2.46 v -1.975 h 2.46 z" fill="#1d1d23" id="path190"></path>
    <path d="M 95.9521,25.3112 V 8.51123 h 2.3436 v 9.67997 l 5.2313,-4.725 h 3.009 l -5.063,4.63 5.521,7.215 h -2.867 l -4.3265,-5.665 -1.5048,1.365 v 4.3 z" fill="#1d1d23" id="path192"></path>
    <path d="m 94.0153,13.4663 v 11.845 h -2.3181 v -2.09 c -0.6457,1.48 -2.1047,2.28 -3.8941,2.28 -2.7249,0 -4.494,-1.925 -4.494,-4.745 v -7.285 h 2.3181 v 6.84 c 0,1.88 1.1235,3.15 2.8215,3.15 1.886,0 3.2485,-1.505 3.2485,-3.57 v -6.415 h 2.3181 z" fill="#1d1d23" id="path194"></path>
    <path d="m 75.2767,25.5014 c -3.706,0 -5.7801,-2.5851 -5.7801,-6.1101 0,-3.525 2.0792,-6.11 5.7598,-6.11 1.6471,0 3.0807,0.775 3.7975,1.925 V 8.50635 h 2.3182 V 25.3064 h -2.3182 v -1.7651 c -0.7168,1.175 -2.1961,1.9501 -3.7772,1.9501 z m -3.4416,-6.1101 c 0,2.47 1.459,4.115 3.706,4.115 2.247,0 3.7009,-1.645 3.7009,-4.115 0,-2.47 -1.4793,-4.11 -3.7009,-4.11 -2.2216,0 -3.706,1.645 -3.706,4.11 z" fill="#1d1d23" id="path196"></path>
    <path d="m 57.3161,25.3114 v -11.845 h 2.3182 v 2.09 c 0.6456,-1.48 2.0792,-2.28 3.8687,-2.28 2.7248,0 4.494,1.925 4.494,4.745 v 7.285 h -2.3182 v -6.84 c 0,-1.88 -1.1235,-3.15 -2.8215,-3.15 -1.886,0 -3.2281,1.505 -3.2281,3.57 v 6.415 H 57.311 Z" fill="#1d1d23" id="path198"></path>
    <path d="m 49.848,25.5013 c -3.6094,0 -6.2123,-2.56 -6.2123,-6.11 0,-3.55 2.6029,-6.1101 6.2123,-6.1101 3.6094,0 6.1869,2.5601 6.1869,6.1101 0,3.55 -2.5825,6.11 -6.1869,6.11 z m -3.8433,-6.11 c 0,2.42 1.5557,4.115 3.8484,4.115 2.2927,0 3.8229,-1.69 3.8229,-4.115 0,-2.425 -1.5556,-4.11 -3.8229,-4.11 -2.2673,0 -3.8484,1.69 -3.8484,4.11 z" fill="#1d1d23" id="path200"></path>
    <path d="m 36.8898,25.5013 c -3.7772,0 -5.9479,-2.8451 -5.9479,-6.1101 0,-3.265 2.1758,-6.11 5.9479,-6.11 2.8215,0 5.2566,1.645 5.5921,4.325 h -2.3182 c -0.2135,-1.34 -1.5759,-2.325 -3.2281,-2.325 -2.3894,0 -3.584,1.835 -3.584,4.11 0,2.275 1.2201,4.115 3.6094,4.115 1.6471,0 2.8418,-0.845 3.2281,-2.185 h 2.2928 c -0.3813,2.49 -2.5063,4.185 -5.5921,4.185 z" fill="#1d1d23" id="path202"></path>
  </g>
  <defs id="defs209">
    <clipPath id="clip0_604_533">
      <rect width="138.276" height="32" fill="#ffffff" transform="translate(0.0327148,0.90625)" id="rect206" x="0" y="0"></rect>
    </clipPath>
  </defs>
</svg>
