<?xml version="1.0" encoding="UTF-8" standalone="no"?>
<!-- Generator: Adobe Illustrator 25.2.3, SVG Export Plug-In . SVG Version: 6.00 Build 0)  -->
<svg xmlns:inkscape="http://www.inkscape.org/namespaces/inkscape" xmlns:sodipodi="http://sodipodi.sourceforge.net/DTD/sodipodi-0.dtd" xmlns:xlink="http://www.w3.org/1999/xlink" xmlns="http://www.w3.org/2000/svg" xmlns:svg="http://www.w3.org/2000/svg" version="1.1" id="Layer_1" x="0px" y="0px" viewBox="0 0 1043.7428 200" xml:space="preserve" sodipodi:docname="Chainguard_logo.svg" width="1043.7428" height="200" inkscape:version="1.2.2 (b0a84865, 2022-12-01)" inkscape:export-filename="Chainguard_1200x680.png" inkscape:export-xdpi="96" inkscape:export-ydpi="96"><defs id="defs229"><linearGradient id="linearGradient42230" inkscape:swatch="solid"><stop style="stop-color:#000000;stop-opacity:1;" offset="0" id="stop42228"></stop></linearGradient><linearGradient id="linearGradient40240" inkscape:swatch="solid"><stop style="stop-color:#000000;stop-opacity:1;" offset="0" id="stop40238"></stop></linearGradient>
	
	
<clipPath id="SVGID_1_-3">
					<use xlink:href="#SVGID_221_-4" style="overflow:visible" id="use184-0"></use>
				</clipPath><clipPath id="SVGID_3_-6">
							<use xlink:href="#SVGID_2_-6" style="overflow:visible" id="use190-2"></use>
						</clipPath><clipPath id="SVGID_5_-2">
								<use xlink:href="#SVGID_4_-0" style="overflow:visible" id="use196-5"></use>
							</clipPath><linearGradient id="paint0_logoIcon" x1="22.277201" y1="19.7838" x2="1.13256" y2="0.46867201" gradientUnits="userSpaceOnUse"><stop stop-color="#4BA1FC" id="stop77"></stop><stop offset="1" stop-color="#EC2AED" id="stop79"></stop></linearGradient><path id="path13820" d="M 107.99998,1.3e-6 C 95.660873,1.3e-6 86.015198,9.2936004 77.283585,21.099313 65.284737,5.821527 55.249985,0 43.241379,0 18.758619,0 0,31.862068 0,65.586212 0,86.689651 10.209562,100 27.310347,100 c 12.30805,0 21.160036,-5.802589 36.896545,-33.310341 0,0 6.559738,-11.584125 11.072502,-19.563858 1.581352,2.553185 3.243111,5.300141 4.996468,8.25351 l 7.379303,12.413795 C 102.02988,91.847885 110.03903,100 124.55173,100 141.2113,100 150.48276,86.507667 150.48276,64.965515 150.48276,29.655172 131.30118,1.3e-6 107.99998,1.3e-6 Z M 52.206898,59.241379 c -12.758622,20 -17.172417,24.482757 -24.275866,24.482757 -7.310343,0 -11.65517,-6.417831 -11.65517,-17.862068 0,-24.482757 12.206897,-49.517242 26.758623,-49.517242 7.880127,0 14.465381,4.551042 24.552231,18.991316 C 58.008797,50.027229 52.206898,59.241379 52.206898,59.241379 Z M 100.35973,56.723576 91.536736,42.00877 C 89.149063,38.125561 86.861008,34.557312 84.652901,31.285744 92.604874,19.012213 99.164246,12.896553 106.96552,12.896553 c 16.2069,0 29.17242,23.862068 29.17242,53.172409 0,11.172417 -3.65935,17.655174 -11.24139,17.655174 -7.26706,0 -10.73868,-4.7994 -24.53682,-27.00056 z"></path><rect id="rect13825" x="-5" y="-5.0020585" width="160.48291" height="110.002"></rect><rect id="rect13830" x="-5" y="-5.0020585" width="160.48291" height="110.002"></rect><clipPath id="clip0_4125_1162"><rect width="213.09801" height="55.412498" fill="#ffffff" id="rect204" x="0" y="0"></rect></clipPath></defs>
<style type="text/css" id="style169">
	.st0{fill:#1C2B33;}
	.st1{clip-path:url(#SVGID_1_);}
	.st2{clip-path:url(#SVGID_3_);}
	.st3{fill:url(#SVGID_6_);}
</style>

<style type="text/css" id="style5357">
	.st0{fill:#1F1E37;}
	.st1{fill:#FFFFFF;}
	.st2{fill:#02238F;}
	.st3{fill:#FA8080;}
	.st4{fill:#FFDB62;}
</style><g style="fill:none" id="g6296"><g id="g1366" transform="scale(7.1428571)"><path d="m 24.6573,16.4945 c 3.1425,1.3826 7.5649,1.8805 7.7118,3.413 0.1375,1.4164 -2.5501,1.9337 -5.5789,1.75 0.7584,0.9378 1.3604,1.837 1.313,2.4799 -0.0759,1.0781 -1.2087,1.779 -2.9956,1.779 -2.0025,0 -5.083,-1.2779 -5.8226,-4.7295 0.0298,0.1427 0.2913,1.4492 0.1347,2.704 C 19.2206,25.4765 18.0451,28 16.1871,28 c -1.8581,0 -3.0336,-2.5235 -3.2326,-4.1091 -0.1566,-1.2548 0.1048,-2.5613 0.1347,-2.704 -0.7396,3.4516 -3.82486,4.7295 -5.82262,4.7295 -1.78694,0 -2.91978,-0.7009 -2.99562,-1.779 -0.04739,-0.6429 0.54983,-1.5373 1.31296,-2.4799 -3.0288,0.1837 -5.716325,-0.3336 -5.57886739,-1.75 C 0.156729,18.3798 4.57906,17.8771 7.71687,16.4945 7.03433,15.107 5.98681,13.5359 6.4371,10.645 7.03907,6.79696 10.3096,0 16.1871,0 c 5.8775,0 9.148,6.8018 9.75,10.645 0.4502,2.8909 -0.5925,4.462 -1.2798,5.8495 z" fill="#ffffff" id="path182"></path><path d="m 32.3691,19.9075 c -0.1469,-1.5325 -4.5693,-2.0304 -7.7118,-3.413 0.6873,-1.3875 1.73,-2.9586 1.2798,-5.8495 C 25.3351,6.8018 22.0646,0 16.1871,0 c -5.8775,0 -9.14803,6.79696 -9.75,10.645 -0.45029,2.8909 0.59723,4.462 1.27977,5.8495 -3.13781,1.3826 -7.560141,1.8853 -7.71181739,3.413 -0.13745761,1.4164 2.55006739,1.9337 5.57886739,1.75 -0.76313,0.9426 -1.36035,1.837 -1.31296,2.4799 0.07584,1.0781 1.20868,1.779 2.99562,1.779 2.00024,0 5.09062,-1.281 5.82532,-4.7424 0,0 -0.3033,1.3875 -0.1374,2.7169 0.199,1.5856 1.3745,4.1091 3.2326,4.1091 1.858,0 3.0335,-2.5235 3.2326,-4.1091 0.1659,-1.3294 -0.1375,-2.7169 -0.1375,-2.7169 0.7347,3.4614 3.8204,4.7424 5.8254,4.7424 1.7869,0 2.9197,-0.7009 2.9956,-1.779 0.0474,-0.6429 -0.5546,-1.5421 -1.313,-2.4799 3.0288,0.1837 5.7164,-0.3336 5.5789,-1.75 z M 10.0299,5.74793 C 9.67919,5.44337 9.77399,4.78591 10.2385,4.27832 c 0.4645,-0.5076 1.1281,-0.6768 1.4788,-0.37224 0.3508,0.30456 0.256,0.96201 -0.2085,1.46961 -0.4645,0.5076 -1.1281,0.67196 -1.4789,0.37224 z m 3.1995,8.75967 c -1.4457,0 -2.6164,-1.1941 -2.6164,-2.6685 0,-1.4745 1.1707,-2.66852 2.6164,-2.66852 1.4456,0 2.6164,1.19402 2.6164,2.66852 0,1.4696 -1.1708,2.6685 -2.6164,2.6685 z M 14.8267,3.99793 c -1.0191,0.46409 -2.1045,0.30456 -2.4268,-0.3529 -0.3223,-0.6623 0.2417,-1.57114 1.2608,-2.03522 1.0191,-0.46409 2.1045,-0.30456 2.4268,0.3529 0.3224,0.65746 -0.2417,1.57113 -1.2608,2.03522 z m 7.0388,10.50967 c -1.4457,0 -2.6164,-1.1941 -2.6164,-2.6685 0,-1.4745 1.1707,-2.66852 2.6164,-2.66852 1.4456,0 2.6164,1.19402 2.6164,2.66852 0,1.4696 -1.1708,2.6685 -2.6164,2.6685 z m 0.2133,-2.6878 0.9622,-1.1554 c -0.2986,-0.3143 -0.7158,-0.5076 -1.1755,-0.5076 -0.9101,0 -1.6448,0.7493 -1.6448,1.6775 0,0.9281 0.7347,1.6774 1.6448,1.6774 0.91,0 1.6447,-0.7493 1.6447,-1.6774 0,-0.0049 0,-0.0097 0,-0.0145 z m -7.2094,0 c 0,0.0048 0,0.0096 0,0.0145 0,0.9281 -0.7347,1.6774 -1.6448,1.6774 -0.91,0 -1.6447,-0.7493 -1.6447,-1.6774 0,-0.9282 0.7347,-1.6775 1.6447,-1.6775 0.4598,0 0.8769,0.1933 1.1755,0.5076 l -0.9622,1.1554 z" fill="#3443f4" id="path184"></path><path d="m 48.0508,11.4676 h 3.126 C 51.0808,10.6084 50.8478,9.84611 50.4776,9.18088 50.1074,8.51566 49.6344,7.9613 49.0585,7.51782 48.4964,7.06047 47.852,6.714 47.1254,6.4784 46.4124,6.2428 45.6515,6.125 44.8426,6.125 c -1.1243,0 -2.1389,0.20095 -3.0437,0.60286 -0.8912,0.40191 -1.6453,0.95626 -2.2623,1.66307 -0.6169,0.7068 -1.0899,1.53834 -1.419,2.49457 -0.3291,0.9424 -0.4936,1.968 -0.4936,3.0767 0,1.081 0.1645,2.0927 0.4936,3.0351 0.3291,0.9285 0.8021,1.7393 1.419,2.4322 0.617,0.693 1.3711,1.2404 2.2623,1.6423 0.9048,0.3881 1.9194,0.5821 3.0437,0.5821 0.9049,0 1.7343,-0.1386 2.4884,-0.4158 0.7541,-0.2772 1.4122,-0.6791 1.9743,-1.2057 0.5622,-0.5266 1.0146,-1.1641 1.3574,-1.9125 0.3427,-0.7484 0.5552,-1.5869 0.6375,-2.5154 h -3.126 c -0.1234,0.9978 -0.4661,1.8016 -1.0283,2.4114 -0.5484,0.6098 -1.3162,0.9147 -2.3033,0.9147 -0.7267,0 -1.3436,-0.1386 -1.8509,-0.4158 -0.5073,-0.291 -0.9186,-0.6721 -1.234,-1.1433 -0.3153,-0.4712 -0.5484,-0.9978 -0.6992,-1.5799 -0.1371,-0.596 -0.2057,-1.2057 -0.2057,-1.8294 0,-0.6514 0.0686,-1.2819 0.2057,-1.8917 0.1508,-0.6098 0.3839,-1.1503 0.6992,-1.6215 0.3154,-0.48509 0.7267,-0.86621 1.234,-1.14338 0.5073,-0.29104 1.1242,-0.43656 1.8509,-0.43656 0.3976,0 0.7746,0.06929 1.1311,0.20788 0.3702,0.12473 0.6992,0.3049 0.9871,0.5405 0.288,0.2356 0.5279,0.51276 0.7198,0.83156 0.192,0.3049 0.3154,0.6444 0.3702,1.0186 z" fill="#3443f4" id="path186"></path><path d="m 52.7853,6.4784 v 14.8429 h 2.9203 v -5.6337 c 0,-1.0948 0.1782,-1.8778 0.5347,-2.349 0.3565,-0.4851 0.9323,-0.7276 1.7275,-0.7276 0.6992,0 1.186,0.2217 1.4602,0.6652 0.2742,0.4296 0.4113,1.0879 0.4113,1.9749 v 6.0702 h 2.9203 v -6.6107 c 0,-0.6652 -0.0617,-1.2681 -0.1851,-1.8086 -0.1097,-0.5544 -0.3085,-1.0186 -0.5964,-1.3928 -0.2879,-0.3881 -0.6855,-0.686 -1.1928,-0.8939 -0.4936,-0.2218 -1.1311,-0.3326 -1.9126,-0.3326 -0.5484,0 -1.1105,0.1455 -1.6864,0.4365 -0.5758,0.2772 -1.0488,0.7276 -1.419,1.3513 H 55.7056 V 6.4784 Z" fill="#3443f4" id="path188"></path><path d="m 64.4413,13.8791 c 0.0412,-0.693 0.2126,-1.2681 0.5142,-1.7255 0.3016,-0.4573 0.6855,-0.8246 1.1517,-1.1018 0.4661,-0.2771 0.9871,-0.4712 1.563,-0.582 0.5895,-0.1248 1.1791,-0.1871 1.7686,-0.1871 0.5347,0 1.0763,0.0415 1.6247,0.1247 0.5484,0.0693 1.0488,0.2148 1.5013,0.4366 0.4524,0.2217 0.8226,0.5335 1.1105,0.9354 0.2879,0.3881 0.4319,0.9078 0.4319,1.5592 v 5.592 c 0,0.4851 0.0274,0.9494 0.0823,1.3928 0.0548,0.4435 0.1508,0.7761 0.2879,0.9979 H 71.5159 C 71.4611,21.155 71.4131,20.9887 71.372,20.8224 71.3446,20.6422 71.324,20.462 71.3103,20.2819 c -0.4662,0.485 -1.0146,0.8246 -1.6453,1.0186 -0.6307,0.194 -1.2751,0.291 -1.9332,0.291 -0.5072,0 -0.9802,-0.0623 -1.419,-0.1871 -0.4387,-0.1247 -0.8226,-0.3187 -1.1517,-0.582 -0.329,-0.2634 -0.5895,-0.596 -0.7815,-0.9979 -0.1782,-0.4019 -0.2673,-0.88 -0.2673,-1.4344 0,-0.6098 0.1028,-1.1087 0.3085,-1.4967 0.2193,-0.4019 0.4936,-0.7207 0.8226,-0.9563 0.3428,-0.2356 0.7267,-0.4088 1.1517,-0.5197 0.4387,-0.1247 0.8775,-0.2218 1.3162,-0.291 0.4387,-0.0693 0.8706,-0.1248 1.2956,-0.1664 0.425,-0.0415 0.8021,-0.1039 1.1311,-0.1871 0.3291,-0.0831 0.5896,-0.2009 0.7815,-0.3534 0.192,-0.1663 0.2811,-0.4019 0.2674,-0.7068 0,-0.3187 -0.0549,-0.5682 -0.1645,-0.7483 -0.096,-0.1941 -0.2331,-0.3396 -0.4114,-0.4366 -0.1645,-0.1109 -0.3633,-0.1802 -0.5964,-0.2079 -0.2193,-0.0416 -0.4593,-0.0623 -0.7198,-0.0623 -0.5758,0 -1.0282,0.1247 -1.3573,0.3741 -0.329,0.2495 -0.521,0.6653 -0.5758,1.2474 z m 6.7456,2.1827 c -0.1234,0.1109 -0.2811,0.201 -0.473,0.2703 -0.1783,0.0554 -0.3771,0.1039 -0.5964,0.1455 -0.2057,0.0416 -0.4251,0.0762 -0.6581,0.1039 -0.2331,0.0278 -0.4662,0.0624 -0.6993,0.104 -0.2193,0.0416 -0.4387,0.097 -0.6581,0.1663 -0.2056,0.0693 -0.3907,0.1663 -0.5552,0.291 -0.1509,0.1109 -0.2742,0.2564 -0.3702,0.4366 -0.096,0.1801 -0.144,0.4088 -0.144,0.686 0,0.2633 0.048,0.4851 0.144,0.6652 0.096,0.1802 0.2262,0.3257 0.3907,0.4366 0.1645,0.097 0.3565,0.1663 0.5759,0.2079 0.2193,0.0415 0.4456,0.0623 0.6786,0.0623 0.5759,0 1.0215,-0.097 1.3368,-0.291 0.3153,-0.194 0.5484,-0.4227 0.6992,-0.686 0.1508,-0.2772 0.24,-0.5544 0.2674,-0.8316 0.0411,-0.2771 0.0617,-0.4989 0.0617,-0.6652 z" fill="#3443f4" id="path190"></path><path d="M 78.9652,8.91064 V 6.4784 h -2.9203 v 2.43224 z m -2.9203,1.66306 v 10.7476 h 2.9203 V 10.5737 Z" fill="#3443f4" id="path192"></path><path d="m 80.8534,10.5737 v 10.7476 h 2.9203 v -5.6337 c 0,-1.0948 0.1783,-1.8778 0.5347,-2.349 0.3565,-0.4851 0.9323,-0.7276 1.7275,-0.7276 0.6993,0 1.186,0.2217 1.4602,0.6652 0.2742,0.4296 0.4113,1.0879 0.4113,1.9749 v 6.0702 h 2.9203 v -6.6107 c 0,-0.6652 -0.0617,-1.2681 -0.185,-1.8086 -0.1097,-0.5544 -0.3085,-1.0186 -0.5965,-1.3928 -0.2879,-0.3881 -0.6855,-0.686 -1.1928,-0.8939 -0.4935,-0.2218 -1.1311,-0.3326 -1.9126,-0.3326 -0.6169,0 -1.2202,0.1455 -1.8097,0.4365 -0.5896,0.2772 -1.0695,0.7276 -1.4396,1.3513 h -0.0617 v -1.4968 z" fill="#3443f4" id="path194"></path><path d="m 97.5892,18.7851 c -0.4525,0 -0.8295,-0.097 -1.1311,-0.291 C 96.1564,18.3 95.9097,18.0506 95.7177,17.7457 95.5395,17.4408 95.4092,17.1012 95.327,16.7271 95.2584,16.339 95.2241,15.951 95.2241,15.5629 c 0,-0.4019 0.0412,-0.783 0.1234,-1.1434 0.096,-0.3741 0.24,-0.6998 0.4319,-0.977 0.2057,-0.291 0.4525,-0.5197 0.7404,-0.686 0.3016,-0.1663 0.6581,-0.2495 1.0694,-0.2495 0.4799,0 0.8775,0.0901 1.1928,0.2703 0.3153,0.1801 0.569,0.4227 0.7609,0.7276 0.192,0.3049 0.3291,0.6583 0.4113,1.0602 0.0828,0.388 0.1238,0.8038 0.1238,1.2473 0,0.388 -0.055,0.7622 -0.1649,1.1225 -0.096,0.3465 -0.2468,0.6583 -0.4524,0.9355 -0.2057,0.2772 -0.4662,0.4989 -0.7815,0.6652 -0.3154,0.1663 -0.6787,0.2495 -1.09,0.2495 z m 5.2648,1.8502 V 10.5737 h -2.776 v 1.4344 h -0.041 c -0.357,-0.6237 -0.8026,-1.0671 -1.3373,-1.3305 -0.521,-0.2633 -1.1311,-0.3949 -1.8303,-0.3949 -0.7404,0 -1.3985,0.1455 -1.9743,0.4365 -0.5621,0.2911 -1.0352,0.686 -1.419,1.185 -0.3839,0.485 -0.6787,1.0532 -0.8844,1.7046 -0.1919,0.6375 -0.2879,1.3027 -0.2879,1.9957 0,0.7345 0.0823,1.4344 0.2468,2.0996 0.1782,0.6514 0.4524,1.2265 0.8226,1.7254 0.3702,0.4851 0.8432,0.8731 1.4191,1.1642 0.5758,0.2772 1.2613,0.4157 2.0565,0.4157 0.6444,0 1.2545,-0.1316 1.8304,-0.3949 0.5895,-0.2772 1.042,-0.6999 1.3578,-1.2681 h 0.041 V 20.76 c 0.013,0.7622 -0.1717,1.3928 -0.5556,1.8917 -0.3702,0.4989 -0.9666,0.7484 -1.7893,0.7484 -0.5209,0 -0.9803,-0.1109 -1.3779,-0.3326 -0.3976,-0.2079 -0.6649,-0.589 -0.802,-1.1434 h -2.8998 c 0.0412,0.6098 0.2057,1.1295 0.4936,1.5592 0.3016,0.4434 0.6718,0.8038 1.1106,1.081 0.4524,0.2771 0.946,0.4781 1.4807,0.6028 0.5484,0.1386 1.0831,0.2079 1.6041,0.2079 1.2202,0 2.1937,-0.1663 2.9206,-0.4989 0.726,-0.3326 1.282,-0.7415 1.666,-1.2265 0.383,-0.4712 0.63,-0.984 0.74,-1.5384 0.123,-0.5543 0.185,-1.0463 0.185,-1.4759 z" fill="#3443f4" id="path196"></path><path d="M 114.768,21.3213 V 10.5737 h -2.92 v 5.6336 c 0,1.0949 -0.178,1.8849 -0.535,2.3699 -0.356,0.4712 -0.932,0.7068 -1.727,0.7068 -0.7,0 -1.186,-0.2148 -1.46,-0.6444 -0.275,-0.4435 -0.412,-1.1087 -0.412,-1.9957 v -6.0702 h -2.92 v 6.6107 c 0,0.6652 0.055,1.275 0.164,1.8294 0.124,0.5405 0.329,1.0047 0.617,1.3928 0.288,0.3742 0.679,0.6652 1.173,0.8731 0.507,0.2079 1.151,0.3118 1.933,0.3118 0.617,0 1.22,-0.1386 1.81,-0.4157 0.589,-0.2772 1.069,-0.7276 1.439,-1.3513 h 0.062 v 1.4968 z" fill="#3443f4" id="path198"></path><path d="m 116.45,13.8791 c 0.041,-0.693 0.213,-1.2681 0.514,-1.7255 0.302,-0.4573 0.686,-0.8246 1.152,-1.1018 0.466,-0.2771 0.987,-0.4712 1.563,-0.582 0.589,-0.1248 1.179,-0.1871 1.768,-0.1871 0.535,0 1.077,0.0415 1.625,0.1247 0.549,0.0693 1.049,0.2148 1.501,0.4366 0.453,0.2217 0.823,0.5335 1.111,0.9354 0.288,0.3881 0.432,0.9078 0.432,1.5592 v 5.592 c 0,0.4851 0.027,0.9494 0.082,1.3928 0.055,0.4435 0.151,0.7761 0.288,0.9979 h -2.961 c -0.055,-0.1663 -0.103,-0.3326 -0.144,-0.4989 -0.028,-0.1802 -0.048,-0.3604 -0.062,-0.5405 -0.466,0.485 -1.015,0.8246 -1.645,1.0186 -0.631,0.194 -1.275,0.291 -1.933,0.291 -0.508,0 -0.981,-0.0623 -1.42,-0.1871 -0.438,-0.1247 -0.822,-0.3187 -1.151,-0.582 -0.329,-0.2634 -0.59,-0.596 -0.782,-0.9979 -0.178,-0.4019 -0.267,-0.88 -0.267,-1.4344 0,-0.6098 0.103,-1.1087 0.308,-1.4967 0.22,-0.4019 0.494,-0.7207 0.823,-0.9563 0.343,-0.2356 0.727,-0.4088 1.152,-0.5197 0.438,-0.1247 0.877,-0.2218 1.316,-0.291 0.439,-0.0693 0.871,-0.1248 1.296,-0.1664 0.425,-0.0415 0.802,-0.1039 1.131,-0.1871 0.329,-0.0831 0.589,-0.2009 0.781,-0.3534 0.192,-0.1663 0.281,-0.4019 0.268,-0.7068 0,-0.3187 -0.055,-0.5682 -0.165,-0.7483 -0.096,-0.1941 -0.233,-0.3396 -0.411,-0.4366 -0.165,-0.1109 -0.364,-0.1802 -0.597,-0.2079 -0.219,-0.0416 -0.459,-0.0623 -0.719,-0.0623 -0.576,0 -1.029,0.1247 -1.358,0.3741 -0.329,0.2495 -0.521,0.6653 -0.576,1.2474 z m 6.746,2.1827 c -0.124,0.1109 -0.282,0.201 -0.473,0.2703 -0.179,0.0554 -0.378,0.1039 -0.597,0.1455 -0.206,0.0416 -0.425,0.0762 -0.658,0.1039 -0.233,0.0278 -0.466,0.0624 -0.699,0.104 -0.22,0.0416 -0.439,0.097 -0.658,0.1663 -0.206,0.0693 -0.391,0.1663 -0.556,0.291 -0.15,0.1109 -0.274,0.2564 -0.37,0.4366 -0.096,0.1801 -0.144,0.4088 -0.144,0.686 0,0.2633 0.048,0.4851 0.144,0.6652 0.096,0.1802 0.226,0.3257 0.391,0.4366 0.165,0.097 0.356,0.1663 0.576,0.2079 0.219,0.0415 0.445,0.0623 0.678,0.0623 0.576,0 1.022,-0.097 1.337,-0.291 0.316,-0.194 0.549,-0.4227 0.699,-0.686 0.151,-0.2772 0.24,-0.5544 0.268,-0.8316 0.041,-0.2771 0.062,-0.4989 0.062,-0.6652 z" fill="#3443f4" id="path200"></path><path d="m 127.971,10.5737 v 10.7476 h 2.921 v -4.8437 c 0,-0.4851 0.048,-0.9355 0.144,-1.3512 0.096,-0.4158 0.253,-0.7761 0.473,-1.081 0.233,-0.3188 0.534,-0.5683 0.904,-0.7484 0.371,-0.1802 0.823,-0.2703 1.358,-0.2703 0.178,0 0.363,0.0139 0.555,0.0416 0.192,0.0139 0.357,0.0347 0.494,0.0624 v -2.7441 c -0.233,-0.0693 -0.446,-0.1039 -0.638,-0.1039 -0.37,0 -0.727,0.0554 -1.069,0.1663 -0.343,0.1108 -0.665,0.2702 -0.967,0.4781 -0.302,0.194 -0.569,0.4366 -0.802,0.7276 -0.233,0.2772 -0.418,0.5821 -0.555,0.9147 h -0.041 v -1.9957 z" fill="#3443f4" id="path202"></path><path d="m 143.307,15.9163 c 0,0.4435 -0.042,0.8731 -0.124,1.2889 -0.082,0.4158 -0.219,0.7899 -0.411,1.1226 -0.192,0.3187 -0.453,0.5751 -0.782,0.7691 -0.315,0.194 -0.713,0.2911 -1.192,0.2911 -0.453,0 -0.844,-0.0971 -1.173,-0.2911 -0.315,-0.2079 -0.582,-0.4712 -0.802,-0.7899 -0.205,-0.3326 -0.356,-0.7068 -0.452,-1.1226 -0.096,-0.4158 -0.144,-0.8315 -0.144,-1.2473 0,-0.4435 0.041,-0.8662 0.123,-1.2681 0.096,-0.4158 0.24,-0.783 0.432,-1.1018 0.206,-0.3187 0.473,-0.5751 0.802,-0.7691 0.329,-0.1941 0.734,-0.2911 1.214,-0.2911 0.479,0 0.877,0.097 1.192,0.2911 0.316,0.194 0.569,0.4504 0.761,0.7691 0.206,0.3049 0.35,0.6653 0.432,1.081 0.082,0.4019 0.124,0.8246 0.124,1.2681 z m 0.041,4.0329 v 1.3721 h 2.776 V 6.4784 h -2.92 v 5.405 h -0.041 c -0.329,-0.5267 -0.782,-0.9216 -1.358,-1.185 -0.562,-0.2771 -1.158,-0.4157 -1.789,-0.4157 -0.781,0 -1.467,0.1593 -2.057,0.4781 -0.589,0.3049 -1.083,0.7137 -1.48,1.2265 -0.384,0.5128 -0.679,1.1087 -0.885,1.7878 -0.192,0.6652 -0.288,1.3582 -0.288,2.0788 0,0.7484 0.096,1.4691 0.288,2.162 0.206,0.693 0.501,1.3097 0.885,1.8502 0.397,0.5266 0.898,0.9493 1.501,1.2681 0.603,0.3049 1.303,0.4573 2.098,0.4573 0.699,0 1.323,-0.1247 1.871,-0.3742 0.562,-0.2633 1.015,-0.686 1.358,-1.2681 z" fill="#3443f4" id="path204"></path></g></g></svg>
