<?xml version="1.0" encoding="UTF-8" standalone="no"?>
<svg xmlns:inkscape="http://www.inkscape.org/namespaces/inkscape" xmlns:sodipodi="http://sodipodi.sourceforge.net/DTD/sodipodi-0.dtd" xmlns:xlink="http://www.w3.org/1999/xlink" xmlns="http://www.w3.org/2000/svg" xmlns:svg="http://www.w3.org/2000/svg" width="629.48376" height="200" viewBox="0 0 629.48377 200" fill="none" version="1.1" id="svg30" sodipodi:docname="Kong_logo.svg" inkscape:version="1.1.1 (3bf5ae0d25, 2021-09-20)">
  <defs id="defs28">
    <linearGradient id="paint0_linear_1182_11432" x1="30.363001" y1="238.463" x2="230.327" y2="38.668499" gradientUnits="userSpaceOnUse">
      <stop stop-color="#FC3519" id="stop20"></stop>
      <stop offset="1" stop-color="#F0D136" id="stop22"></stop>
    </linearGradient>
    <clipPath id="clip0_1182_11432">
      <rect width="962.61401" height="116.656" fill="#ffffff" transform="translate(132.155,70.9724)" id="rect25" x="0" y="0"></rect>
    </clipPath>
    <linearGradient inkscape:collect="always" xlink:href="#a" id="linearGradient935" gradientUnits="userSpaceOnUse" x1="32.8979" y1="13.2258" x2="3.4258001" y2="43.351299"></linearGradient>
    <linearGradient id="a" gradientUnits="userSpaceOnUse" x1="32.8979" x2="3.4258001" y1="13.2258" y2="43.351299" fill="none">
      <stop offset="0" stop-color="#11a06b" fill="none" id="stop2"></stop>
      <stop offset="1" stop-color="#286feb" fill="none" id="stop4"></stop>
    </linearGradient>
    <linearGradient inkscape:collect="always" xlink:href="#a" id="linearGradient1390" gradientUnits="userSpaceOnUse" x1="32.8979" y1="13.2258" x2="3.4258001" y2="43.351299"></linearGradient>
    <linearGradient inkscape:collect="always" xlink:href="#a" id="linearGradient1392" gradientUnits="userSpaceOnUse" x1="32.8979" y1="13.2258" x2="3.4258001" y2="43.351299"></linearGradient>
    <linearGradient inkscape:collect="always" xlink:href="#a" id="linearGradient1394" gradientUnits="userSpaceOnUse" x1="32.8979" y1="13.2258" x2="3.4258001" y2="43.351299"></linearGradient>
    <linearGradient inkscape:collect="always" xlink:href="#a" id="linearGradient1396" gradientUnits="userSpaceOnUse" x1="32.8979" y1="13.2258" x2="3.4258001" y2="43.351299"></linearGradient>
  </defs>
  <g id="g915" transform="matrix(5,0,0,5,-0.0012207,0)" style="stroke-width:0.2">
    <g fill="url(#a)" id="g77" style="fill:url(#linearGradient935);stroke-width:0.251794">
      <path d="m 14.6993,32.947 -1.0995,1.3902 2.4875,3.8722 L 15.828,40 H 26.381 L 27.1116,38.2094 22.867,32.947 Z" fill="url(#a)" id="path69" style="fill:url(#linearGradient1390);stroke-width:0.316999"></path>
      <path d="M 20.4707,9.38222 16.6535,16.0386 35.272,37.9874 34.7424,40 h 8.5403 L 44.8278,32.8596 24.9053,9.37858 Z" fill="url(#a)" id="path71" style="fill:url(#linearGradient1392);stroke-width:0.316999"></path>
      <path d="m 23.0058,4.37813 -1.8155,3.33 h 4.504 L 33.4237,16.872 38.019,13.1125 V 10.7251 L 36.4227,8.49058 37.6025,7.26776 28.3828,0 Z" fill="url(#a)" id="path73" style="fill:url(#linearGradient1394);stroke-width:0.316999"></path>
      <path d="M 9.14695,22.9278 H 6.63014 L 2.4414e-4,31.3129 V 40 H 7.11232 l 1.25657,-1.6268 5.48661,-7.0785 h 7.9376 l 2.4437,-3.7303 -8.6061,-10.1756 z" fill="url(#a)" id="path75" style="fill:url(#linearGradient1396);stroke-width:0.316999"></path>
    </g>
    <path clip-rule="evenodd" d="m 77.1217,27.387 h 6.1921 v -9.4607 h -6.1921 z m 0.2169,3.7843 c -1.7235,0 -2.6188,-0.2793 -3.3563,-1.0464 -1.1083,-1.1093 -1.5382,-2.6514 -1.5382,-7.4309 0,-4.7795 0.4299,-6.3215 1.5382,-7.4623 0.7099,-0.7395 1.6328,-1.0188 3.3563,-1.0188 h 5.7583 c 1.7235,0 2.6188,0.2793 3.3563,1.0188 1.1083,1.1408 1.5382,2.6513 1.5382,7.4623 0,4.811 -0.4299,6.3216 -1.5382,7.4309 -0.7375,0.771 -1.6328,1.0464 -3.3563,1.0464 z" fill="#181c1f" fill-rule="evenodd" id="path79" style="stroke-width:0.251794"></path>
    <path clip-rule="evenodd" d="m 101.997,19.5589 v 0.1809 11.4276 h 4.709 V 19.1852 c 0,-2.4862 -0.276,-3.3791 -0.986,-4.0557 -0.647,-0.6452 -1.574,-0.9363 -3.021,-0.9363 l -4.1416,0.0118 -2.3743,2.1361 V 14.205 h -1.5894 -3.104 v 16.9584 h 4.7092 V 17.9185 h 5.7901 v 1.6325 z" fill="#181c1f" fill-rule="evenodd" id="path81" style="stroke-width:0.251794"></path>
    <path clip-rule="evenodd" d="m 65.0766,9.53952 h 5.6084 l -8.0537,10.16478 8.3929,11.463 h -5.9476 l -6.3853,-9.0044 -1.5145,-0.0078 v 9.0122 H 52.1284 V 9.53952 h 5.0484 v 8.38278 h 1.5145 z" fill="#181c1f" fill-rule="evenodd" id="path83" style="stroke-width:0.251794"></path>
    <path clip-rule="evenodd" d="m 121.161,14.2092 v 2.136 l -2.375,-2.136 -3.534,-0.0118 c -1.692,0 -2.685,0.2911 -3.455,1.0267 -1.017,1.0424 -1.51,3.324 -1.51,7.5016 0,4.1777 0.402,6.3648 1.384,7.3797 0.769,0.7357 1.684,1.0622 3.503,1.0622 h 5.975 l 0.008,2.4271 -8.295,0.0157 0.008,0.9953 2.142,2.3681 h 6.484 c 1.723,0 2.709,-0.3069 3.325,-0.952 0.769,-0.7985 1.076,-1.2942 1.076,-4.2091 V 14.2131 h -4.74 z m 0.031,13.1584 H 115 v -9.445 h 6.188 v 9.445 z" fill="#181c1f" fill-rule="evenodd" id="path85" style="stroke-width:0.251794"></path>
  </g>
</svg>
