<?xml version="1.0" encoding="UTF-8"?>
<svg xmlns="http://www.w3.org/2000/svg" aria-label="Speakeasy Logo" width="830" height="100" viewBox="0 -10 830 100" fill="none" class="z-10">
  <g style="fill:#222117;fill-opacity:1" fill="#fbe331">
    <path d="m142.736 9.11-2.972-1.052c-.81-.292-1.411-.642-1.801-1.08-.39-.438-.6-1.022-.6-1.752 0-.817.3-1.489.87-2.014.571-.526 1.351-.789 2.252-.789 1.02 0 1.831.292 2.431.876.6.584.901 1.343.901 2.248v.292h2.761v-.292c0-1.08-.24-2.043-.75-2.89s-1.231-1.49-2.131-1.956C142.766.234 141.715 0 140.515 0c-1.141 0-2.192.234-3.092.7a5.431 5.431 0 0 0-2.101 1.899c-.511.817-.751 1.751-.751 2.773 0 1.168.33 2.19.961 3.095.63.905 1.711 1.606 3.212 2.131l2.641.906c.871.32 1.501.73 1.891 1.197.421.467.631 1.11.631 1.898 0 .554-.15 1.08-.421 1.518-.27.467-.66.817-1.17 1.08a3.516 3.516 0 0 1-1.651.38c-.991 0-1.801-.292-2.432-.876-.63-.584-.93-1.343-.93-2.307v-.321h-2.732v.263c0 1.11.24 2.073.751 2.949a5.192 5.192 0 0 0 2.161 1.985c.93.467 1.981.7 3.182.7 1.2 0 2.251-.233 3.152-.7a5.119 5.119 0 0 0 2.131-1.985c.51-.847.75-1.84.75-2.92 0-1.197-.3-2.277-.93-3.183-.601-.846-1.621-1.547-3.032-2.073zM5.163 8.058 8.135 9.11c1.44.526 2.461 1.227 3.062 2.103.63.905.93 1.985.93 3.182 0 1.08-.24 2.073-.75 2.92a5.119 5.119 0 0 1-2.131 1.985c-.901.467-1.952.701-3.152.701-1.201 0-2.252-.234-3.182-.7A5.197 5.197 0 0 1 .75 17.313c-.51-.876-.75-1.84-.75-2.949v-.263h2.732v.321c0 .964.3 1.723.93 2.307.63.584 1.441.876 2.432.876.6 0 1.14-.117 1.65-.38.511-.262.901-.613 1.171-1.08.27-.438.42-.964.42-1.518 0-.789-.18-1.43-.6-1.898-.39-.467-1.02-.876-1.89-1.197l-2.642-.905C2.702 10.102 1.62 9.372.96 8.496A5.274 5.274 0 0 1 0 5.401C0 4.38.24 3.445.75 2.628c.51-.789 1.201-1.43 2.102-1.898.9-.467 1.95-.7 3.092-.7 1.2 0 2.25.233 3.181.67.901.468 1.621 1.11 2.132 1.957.51.847.75 1.81.75 2.89v.292H9.216v-.292c0-.905-.3-1.664-.901-2.248-.6-.584-1.41-.876-2.431-.876-.901 0-1.681.263-2.252.789-.57.525-.87 1.197-.87 2.014 0 .73.21 1.314.6 1.752.39.438.99.788 1.801 1.08zM128.417 13.723l-.93-2.453h-4.773l-.931 2.453h3.362l2.282 6.043h2.401l-.03-2.364z" style="fill:#222117;fill-opacity:1" transform="matrix(5 0 0 5 0 -10)"></path>
    <path fill-rule="evenodd" clip-rule="evenodd" d="M27.977 1.08c-.93-.496-2.011-.759-3.242-.759H18.85v19.445h2.762v-7.532h3.062c1.23 0 2.341-.234 3.272-.73A5.433 5.433 0 0 0 30.168 9.4c.51-.905.78-1.927.78-3.094 0-1.168-.27-2.19-.78-3.095-.54-.905-1.26-1.635-2.191-2.132zm-.87 7.796c-.661.613-1.562.934-2.702.934h-2.792V2.745h2.792c1.14 0 2.04.32 2.701.963.66.642.99 1.49.99 2.599 0 1.08-.33 1.927-.99 2.569z" style="fill:#222117;fill-opacity:1" transform="matrix(5 0 0 5 0 -10)"></path>
    <path d="M37.733 19.766V.321H49.74v2.424h-9.246v6.043h7.415v2.453h-7.415v6.102h9.246v2.423zM82.58 8.788v.03h-2.942V.32h-2.762v19.445h2.762V11.27h3.032l4.653 8.496h2.431v-1.255l-4.863-8.555 4.863-8.38V.322h-2.431zM96.148 19.766V.321h12.007v2.424H98.91v6.043h7.414v2.453H98.91v6.102h9.245v2.423zM159.696 8.409 163.539.32H166v1.226l-5.133 10.307v7.912h-2.762v-7.854l-5.163-10.394V.321h2.462l3.842 8.088zM68.982 11.27l.93 2.453 1.38 3.678v2.365h-2.37l-2.282-6.043h-3.362l.93-2.453z" style="fill:#222117;fill-opacity:1" transform="matrix(5 0 0 5 0 -10)"></path>
    <path d="M113.8 7.402v2.365h2.401l6.424-17.08V-9.68h-2.371zM55.294 7.402v2.365h2.4l6.425-17.08V-9.68h-2.372z" transform="matrix(5 0 0 5 0 40)" style="fill:#222117;fill-opacity:1"></path>
  </g>
</svg>
