<?xml version="1.0" encoding="UTF-8" standalone="no"?>
<!-- Generator: Adobe Illustrator 24.0.2, SVG Export Plug-In . SVG Version: 6.00 Build 0)  -->
<svg xmlns:inkscape="http://www.inkscape.org/namespaces/inkscape" xmlns:sodipodi="http://sodipodi.sourceforge.net/DTD/sodipodi-0.dtd" xmlns="http://www.w3.org/2000/svg" xmlns:svg="http://www.w3.org/2000/svg" version="1.1" id="The_logo" x="0px" y="0px" viewBox="0 0 755.60797 200" xml:space="preserve" sodipodi:docname="Firefly_logo.svg" width="755.60797" height="200" inkscape:version="1.3.2 (091e20e, 2023-11-25)"><defs id="defs3"></defs>
<style type="text/css" id="style1">
	.st0{fill:#090606;}
	.st1{fill:url(#Icon_1_);}
</style>

<radialGradient id="Icon_1_" cx="-172.5121" cy="519.49463" r="1" gradientTransform="matrix(0,-334.067,-232.495,0,120953.42,-57343.02)" gradientUnits="userSpaceOnUse">
	<stop offset="0" style="stop-color:#33FDD8" id="stop1"></stop>
	<stop offset="0.6146" style="stop-color:#7A4AFF" id="stop2"></stop>
	<stop offset="1" style="stop-color:#45108A" id="stop3"></stop>
</radialGradient>
<g id="g3" transform="matrix(0.7407192,0,0,0.7407192,3.0584041e-4,-0.06825614)"><path id="Wordmark" class="st0" d="M 524.1,84 V 62.1 H 420 v 156.3 h 24.6 V 152 h 72.7 V 131 H 444.6 V 84 Z m 48,-6.7 c 0,-8.1 -6.1,-13.5 -14.7,-13.5 -8.8,0 -14.7,5.4 -14.7,13.5 0,7.9 5.9,13.5 14.7,13.5 8.6,0 14.7,-5.6 14.7,-13.5 z m -26.2,30 v 111.1 h 23 V 107.3 Z m 73,111.1 v -66.2 c 0,-16.7 10.2,-25.5 27.3,-25.5 v -19.4 c -32.1,0 -50.6,15.8 -50.6,42.9 v 68.2 z m 153.6,-55.3 c -0.2,-33.6 -24.8,-57.8 -59.2,-57.8 -34.3,0 -59.4,24.2 -59.4,57.6 0,33.4 25.1,57.6 59.4,57.6 27.3,0 51,-17.6 57.4,-42.2 h -23.5 c -4.3,13.3 -17.8,23.3 -33.6,23.3 -19.2,0 -33.6,-12.9 -36.6,-31.4 h 94.9 c 0.4,-2.4 0.6,-4.9 0.6,-7.1 z m -58.9,-38.9 c 18.3,0 32.7,11.5 36.6,28 h -72.5 c 4.1,-16.5 17.8,-28 35.9,-28 z M 837.5,79.7 c 2.5,0 5.6,0.5 8.6,1.6 V 61 c -2.9,-0.7 -6.3,-0.9 -8.8,-0.9 -21.2,0 -36.1,13.3 -36.1,32.3 v 14.9 h -16 v 19.4 h 16 v 91.7 h 23 v -91.7 h 21.9 V 107.3 H 824.2 V 92.4 c 0,-7.7 5.7,-12.7 13.3,-12.7 z m 30.2,-17.6 v 156.3 h 23 V 62.1 Z m 129,45.2 v 60.3 c 0,17.8 -11.1,29.6 -28.2,29.6 -16.7,0 -27.5,-11.7 -27.5,-29.6 v -60.3 h -23 v 63.5 c 0,26.9 18.5,44.9 43.6,44.9 15.6,0 28,-6.8 35.2,-18.5 v 25.3 c 0,17.8 -10.8,29.1 -27.5,29.1 -15.4,0 -25.7,-10.2 -27.1,-26 l -21.5,-0.2 c 2.3,26.6 21.7,44.7 49.5,44.7 29.8,0 49.9,-19.6 49.9,-49 V 107.3 Z"></path><path id="Icon" class="st1" d="m 360,85.7 c -0.1,-4.6 -3.9,-8.4 -8.6,-8.4 H 226.8 c -4.1,-22 -23.5,-38.7 -46.8,-38.7 -23.3,0 -42.7,16.7 -46.8,38.7 H 8.6 c -4.7,0 -8.5,3.7 -8.6,8.4 0,1.2 -0.4,29.2 23.7,53.8 8.2,8.4 18.2,15.3 29.9,20.7 -7.2,18.9 -9.2,39.5 -6.2,61.6 0.5,3.5 3.1,6.3 6.5,7.1 0.9,0.2 21.4,5.1 48.1,0 9.3,-1.8 20,-4.9 31.1,-10.4 8.3,22 22.9,39.3 42.6,50.5 1.3,0.8 2.8,1.1 4.3,1.1 1.5,0 2.9,-0.4 4.3,-1.1 19.7,-11.2 34.3,-28.5 42.6,-50.5 11.1,5.5 21.8,8.6 31.1,10.4 9.1,1.7 17.5,2.3 24.6,2.3 13.8,0 22.9,-2.2 23.5,-2.3 3.4,-0.8 6,-3.7 6.5,-7.1 3.1,-22.1 1,-42.7 -6.2,-61.6 11.7,-5.4 21.6,-12.4 29.9,-20.7 C 360.4,114.9 360,86.8 360,85.7 Z m -180,-30 c 14.4,0 26.4,10 29.5,23.4 -12.2,3.3 -22.7,11 -29.5,21.2 C 173.1,90.1 162.7,82.4 150.5,79.1 153.6,65.7 165.6,55.7 180,55.7 Z M 36.3,127.8 C 24.3,115.7 19.8,102.7 18.2,94.5 h 90.9 c -16.9,11.4 -30.5,24.2 -40.6,38.2 -2.8,3.9 -5.4,7.9 -7.7,12 C 51.2,140.1 43,134.4 36.3,127.8 Z m 63.2,84.1 c -15.4,3 -28.5,2.2 -35.7,1.3 -1.5,-16.7 0.5,-32.4 5.9,-46.8 16,5.1 34.6,7.9 55.5,8.6 0.1,6.6 0.7,16.1 3,26.9 -8.9,4.6 -18.5,8 -28.7,10 z m 80.5,39.6 c -14.9,-9.7 -25.6,-23.8 -31.7,-41.9 10.9,-7.5 21.8,-17.5 31.7,-31 9.9,13.5 20.8,23.5 31.7,31 -6.1,18.1 -16.8,32.2 -31.7,41.9 z M 225.9,158 c -2.4,0 -4.7,1 -6.4,2.8 -1.6,1.8 -2.4,4.2 -2.2,6.6 0,0.1 1,10.5 -1.2,24.3 -10.9,-8.6 -20.6,-19.5 -28.8,-32.9 -1.6,-2.5 -4.3,-4.1 -7.3,-4.1 -3,0 -5.8,1.5 -7.3,4.1 -8.2,13.3 -17.9,24.3 -28.8,32.9 -2.2,-13.9 -1.2,-24.2 -1.2,-24.3 0.2,-2.4 -0.5,-4.8 -2.2,-6.6 -1.6,-1.8 -4,-2.8 -6.4,-2.8 -21.7,0 -40.8,-2.4 -56.9,-7.2 1.6,-2.8 3.4,-5.5 5.3,-8.1 13.2,-18.2 33.3,-34.3 59.8,-47.8 16.5,2.6 29.1,16.8 29.1,33.8 0,4.7 3.9,8.6 8.6,8.6 4.8,0 8.6,-3.8 8.6,-8.6 0,-17.1 12.6,-31.3 29.1,-33.8 26.5,13.5 46.6,29.5 59.8,47.8 1.9,2.7 3.7,5.4 5.3,8.1 -16.1,4.7 -35.2,7.2 -56.9,7.2 z m 70.3,55.2 c -7.2,0.9 -20.3,1.7 -35.7,-1.3 -10.3,-2 -19.9,-5.4 -28.8,-10.1 2.3,-10.7 3,-20.3 3,-26.9 21,-0.6 39.5,-3.5 55.5,-8.6 5.5,14.5 7.5,30.2 6,46.9 z m 2.9,-68.6 c -2.3,-4.1 -4.8,-8.1 -7.7,-12 -10.1,-14 -23.7,-26.8 -40.6,-38.2 h 90.9 c -1.7,8.2 -6.1,21.2 -18.1,33.3 -6.6,6.7 -14.8,12.4 -24.5,16.9 z M 139.4,12.7 c -2.4,-4 -1,-9.1 3.2,-11.5 4.1,-2.3 9.4,-0.9 11.8,3.1 l 7.8,13.2 c 2.4,4 1,9.1 -3.2,11.5 -1.4,0.8 -2.8,1.1 -4.3,1.1 -3,0 -5.9,-1.5 -7.5,-4.2 z m 58.5,4.8 7.8,-13.2 c 2.4,-4 7.6,-5.4 11.8,-3.1 4.1,2.3 5.5,7.5 3.2,11.5 l -7.8,13.2 c -1.6,2.7 -4.5,4.2 -7.5,4.2 -1.5,0 -2.9,-0.4 -4.3,-1.1 -4.2,-2.3 -5.6,-7.5 -3.2,-11.5 z" style="fill:url(#Icon_1_)"></path></g>
</svg>
