<?xml version="1.0" encoding="UTF-8" standalone="no"?>
<!-- Created with Inkscape (http://www.inkscape.org/) -->
<svg xmlns:inkscape="http://www.inkscape.org/namespaces/inkscape" xmlns:sodipodi="http://sodipodi.sourceforge.net/DTD/sodipodi-0.dtd" xmlns="http://www.w3.org/2000/svg" xmlns:svg="http://www.w3.org/2000/svg" width="186.24232mm" height="52.916668mm" viewBox="0 0 186.24232 52.916667" version="1.1" id="svg1" xml:space="preserve" inkscape:version="1.3.2 (091e20e, 2023-11-25)" sodipodi:docname="Boomi_logo.svg">
  <defs id="defs1"></defs>
  <g inkscape:label="Layer 1" inkscape:groupmode="layer" id="layer1" transform="translate(387.40703,2.1479916)">
    <g id="group-R5" transform="matrix(0.85088262,0,0,0.85088262,-387.40703,-2.1448794)">
      <path id="path2" d="m 1641.61,388.48 c 0,-20.464 -16.59,-37.054 -37.06,-37.054 -20.46,0 -37.06,16.59 -37.06,37.054 0,20.469 16.6,37.055 37.06,37.055 20.47,0 37.06,-16.586 37.06,-37.055" style="fill:#f47062;fill-opacity:1;fill-rule:nonzero;stroke:none" transform="matrix(0.13333333,0,0,-0.13333333,0,62.186667)"></path>
      <path id="path3" d="m 512.516,56 c 54.492,0 93.933,41.2461 93.933,94.535 0,53.293 -39.441,94.539 -93.933,94.539 -54.493,0 -93.934,-41.246 -93.934,-94.539 C 418.582,97.2461 458.023,56 512.516,56 Z m 0,245.074 c 87.914,0 153.543,-65.933 153.543,-150.539 C 666.059,65.9375 600.43,0 512.516,0 424.605,0 358.969,65.9375 358.969,150.535 c 0,84.606 65.636,150.539 153.547,150.539" style="fill:#1f4364;fill-opacity:1;fill-rule:nonzero;stroke:none" transform="matrix(0.13333333,0,0,-0.13333333,0,62.186667)"></path>
      <path id="path4" d="m 854.91,56 c 54.492,0 93.938,41.2461 93.938,94.535 0,53.293 -39.446,94.539 -93.938,94.539 -54.492,0 -93.933,-41.246 -93.933,-94.539 C 760.977,97.2461 800.418,56 854.91,56 Z m 0,245.074 c 87.914,0 153.55,-65.933 153.55,-150.539 C 1008.46,65.9375 942.824,0 854.91,0 767,0 701.367,65.9375 701.367,150.535 c 0,84.606 65.633,150.539 153.543,150.539" style="fill:#1f4364;fill-opacity:1;fill-rule:nonzero;stroke:none" transform="matrix(0.13333333,0,0,-0.13333333,0,62.186667)"></path>
      <path id="path5" d="M 1574.75,12.5547 V 294.527 c 0,3.602 2.92,6.528 6.52,6.528 h 46.56 c 3.6,0 6.53,-2.926 6.53,-6.528 V 12.5547 c 0,-3.60939 -2.93,-6.53126 -6.53,-6.53126 h -46.56 c -3.6,0 -6.52,2.92187 -6.52,6.53126" style="fill:#1f4364;fill-opacity:1;fill-rule:nonzero;stroke:none" transform="matrix(0.13333333,0,0,-0.13333333,0,62.186667)"></path>
      <path id="path6" d="m 1400.62,301.074 c -49.68,0 -85.81,-25.59 -103.27,-53.89 -18.37,33.418 -53.29,53.89 -102.97,53.89 -50.88,0 -78.27,-27.699 -87.61,-42.453 v 45.715 c 0,5.023 -5.44,8.164 -9.79,5.652 l -48.39,-27.937 c -1.07,-0.621 -1.73,-1.758 -1.73,-2.992 V 12.5547 c 0,-3.60939 2.92,-6.53126 6.53,-6.53126 h 46.86 c 3.6,0 6.52,2.92187 6.52,6.53126 V 168.902 c 0,47.871 35.23,75.571 78.28,75.571 42.45,0 68.04,-27.7 68.04,-75.571 V 12.5547 c 0,-3.60939 2.92,-6.53126 6.53,-6.53126 h 46.86 c 3.6,0 6.53,2.92187 6.53,6.53126 V 172.516 c 1.51,45.461 36.12,71.957 78.28,71.957 42.44,0 68.04,-27.7 68.04,-75.571 V 12.5547 c 0,-3.60939 2.92,-6.53126 6.52,-6.53126 h 46.86 c 3.61,0 6.53,2.92187 6.53,6.53126 V 181.547 c 0,70.152 -41.55,119.527 -118.62,119.527" style="fill:#1f4364;fill-opacity:1;fill-rule:nonzero;stroke:none" transform="matrix(0.13333333,0,0,-0.13333333,0,62.186667)"></path>
      <path id="path7" d="m 166.215,56 c -54.492,0 -93.9337,41.2461 -93.9337,94.535 0,53.293 39.4417,94.539 93.9337,94.539 54.492,0 93.933,-41.246 93.933,-94.539 C 260.148,97.2461 220.707,56 166.215,56 Z m 0,245.074 c -42.324,0 -79.4572,-15.312 -106.6173,-40.609 v 199.422 c 0,5.031 -5.4375,8.168 -9.793,5.656 L 1.72656,437.781 C 0.660156,437.168 0,436.023 0,434.789 V 12.5586 C 0,8.95313 2.92578,6.03125 6.52734,6.03125 H 53.0703 c 3.6055,0 6.5274,2.92188 6.5274,6.52735 V 40.6094 C 86.7578,15.3164 123.891,0 166.215,0 c 87.914,0 153.547,65.9375 153.547,150.535 0,84.606 -65.633,150.539 -153.547,150.539" style="fill:#1f4364;fill-opacity:1;fill-rule:nonzero;stroke:none" transform="matrix(0.13333333,0,0,-0.13333333,0,62.186667)"></path>
    </g>
  </g>
</svg>
