<?xml version="1.0" encoding="UTF-8" standalone="no"?>
<!-- Generator: Adobe Illustrator 26.0.2, SVG Export Plug-In . SVG Version: 6.00 Build 0)  -->
<svg xmlns:inkscape="http://www.inkscape.org/namespaces/inkscape" xmlns:sodipodi="http://sodipodi.sourceforge.net/DTD/sodipodi-0.dtd" xmlns="http://www.w3.org/2000/svg" xmlns:svg="http://www.w3.org/2000/svg" version="1.1" id="Layer_1" x="0px" y="0px" viewBox="0 0 440.76207 99.999996" xml:space="preserve" sodipodi:docname="Coralogix_logo.svg" width="440.76205" height="100" inkscape:version="1.2.2 (b0a84865, 2022-12-01)"><defs id="defs213"></defs>
<style type="text/css" id="style182">
	.st0{fill:#3CC48F;}
	.st1{fill:#AEFFDC;}
</style>
<g id="g208" transform="scale(0.71890726)">
	<g id="g202">
		<path class="st0" d="m 201.6,99.4 c -5.1,-2.8 -9,-6.8 -11.8,-12 -2.7,-5.1 -4.1,-11.1 -4.1,-17.9 0,-6.8 1.4,-12.7 4.1,-17.8 2.7,-5.1 6.7,-9.1 11.8,-11.9 5.1,-2.8 11.1,-4.2 18,-4.2 4.3,0 8.5,0.7 12.6,2 4.1,1.3 7.4,3.1 9.9,5.3 L 236.8,55 c -5.5,-3.8 -11.1,-5.7 -16.8,-5.7 -5.4,0 -9.5,1.7 -12.4,5.1 -2.9,3.4 -4.3,8.4 -4.3,15.2 0,6.7 1.4,11.8 4.3,15.2 2.9,3.4 7,5.1 12.4,5.1 5.7,0 11.3,-1.9 16.8,-5.7 l 5.4,12.2 c -2.6,2.2 -5.9,4 -9.9,5.3 -4,1.3 -8.2,2 -12.6,2 -7,-0.1 -13,-1.5 -18.1,-4.3 z" id="path184"></path>
		<path class="st0" d="m 257.4,100.5 c -3.9,-2 -6.8,-4.8 -8.9,-8.4 -2.1,-3.6 -3.2,-7.9 -3.2,-12.8 0,-4.9 1.1,-9.2 3.2,-12.8 2.1,-3.6 5.1,-6.4 8.9,-8.3 3.8,-1.9 8.3,-2.9 13.5,-2.9 5.1,0 9.6,1 13.5,2.9 3.8,1.9 6.8,4.7 8.9,8.3 2.1,3.6 3.2,7.9 3.2,12.8 0,4.9 -1.1,9.2 -3.2,12.8 -2.1,3.6 -5.1,6.5 -8.9,8.4 -3.8,2 -8.3,3 -13.5,3 -5.2,0 -9.7,-1 -13.5,-3 z m 22.3,-21.2 c 0,-7.8 -3,-11.7 -8.9,-11.7 -6,0 -8.9,3.9 -8.9,11.7 0,7.8 3,11.7 8.9,11.7 5.9,0 8.9,-3.9 8.9,-11.7 z" id="path186"></path>
		<path class="st0" d="m 338.9,69 -9.1,0.9 c -3.6,0.4 -6.2,1.4 -7.6,2.9 -1.4,1.6 -2.2,3.8 -2.2,6.7 v 23.3 H 303.2 V 56.4 h 15.9 v 8 c 1.1,-2.8 2.8,-5 5.3,-6.5 2.4,-1.5 5.4,-2.3 8.9,-2.5 l 4.6,-0.4 z" id="path188"></path>
		<path class="st0" d="m 380.9,60.3 c 3.5,3.4 5.2,8.6 5.2,15.7 v 26.7 h -15.7 v -6.5 c -0.9,2.3 -2.4,4 -4.4,5.3 -2.1,1.3 -4.6,1.9 -7.4,1.9 -3.2,0 -6.1,-0.6 -8.7,-1.9 -2.6,-1.3 -4.6,-3.1 -6.1,-5.4 -1.5,-2.3 -2.2,-4.9 -2.2,-7.8 0,-3.3 0.9,-6 2.6,-8 1.7,-2 4.5,-3.4 8.2,-4.3 3.8,-0.9 8.9,-1.3 15.3,-1.3 h 2.5 v -1.1 c 0,-2.3 -0.5,-3.9 -1.6,-4.8 -1.1,-0.9 -3,-1.4 -5.7,-1.4 -2.1,0 -4.6,0.4 -7.4,1.3 -2.8,0.8 -5.4,1.9 -7.9,3.2 l -4.2,-11 c 2.7,-1.6 6.1,-3 10.1,-4.1 4.1,-1.1 7.8,-1.6 11.2,-1.6 7.3,0.1 12.7,1.8 16.2,5.1 z M 368,89.9 c 1.4,-1.6 2.2,-3.7 2.2,-6.2 v -1.1 h -1.5 c -4,0 -6.9,0.4 -8.6,1.1 -1.7,0.7 -2.5,1.9 -2.5,3.6 0,1.4 0.5,2.6 1.4,3.6 0.9,0.9 2.1,1.4 3.5,1.4 2.2,0 4.1,-0.8 5.5,-2.4 z" id="path190"></path>
		<path class="st0" d="M 393.9,102.8 V 36.4 h 16.8 v 66.4 z" id="path192"></path>
		<path class="st0" d="m 429.7,100.5 c -3.9,-2 -6.8,-4.8 -8.9,-8.4 -2.1,-3.6 -3.2,-7.9 -3.2,-12.8 0,-4.9 1.1,-9.2 3.2,-12.8 2.1,-3.6 5.1,-6.4 8.9,-8.3 3.8,-1.9 8.3,-2.9 13.5,-2.9 5.1,0 9.6,1 13.5,2.9 3.8,1.9 6.8,4.7 8.9,8.3 2.1,3.6 3.2,7.9 3.2,12.8 0,4.9 -1.1,9.2 -3.2,12.8 -2.1,3.6 -5.1,6.5 -8.9,8.4 -3.8,2 -8.3,3 -13.5,3 -5.2,0 -9.7,-1 -13.5,-3 z M 452,79.3 c 0,-7.8 -3,-11.7 -8.9,-11.7 -6,0 -8.9,3.9 -8.9,11.7 0,7.8 3,11.7 8.9,11.7 6,0 8.9,-3.9 8.9,-11.7 z" id="path194"></path>
		<path class="st0" d="m 526.2,56.4 v 40.7 c 0,7.7 -2.3,13.5 -6.8,17.4 -4.6,4 -11.3,5.9 -20.2,5.9 -4.2,0 -8.3,-0.5 -12.2,-1.5 -4,-1 -7.4,-2.3 -10.3,-4.1 l 4.2,-11.4 c 2.9,1.5 5.9,2.7 9,3.5 3.1,0.8 6,1.2 8.8,1.2 3.7,0 6.5,-0.8 8.2,-2.4 1.8,-1.6 2.7,-4.1 2.7,-7.6 v -3.6 c -1.4,2.1 -3.4,3.7 -5.9,4.9 -2.6,1.2 -5.4,1.8 -8.4,1.8 -4,0 -7.6,-0.9 -10.7,-2.8 -3.1,-1.9 -5.6,-4.6 -7.3,-8.1 -1.8,-3.5 -2.6,-7.5 -2.6,-12.1 0,-4.6 0.9,-8.6 2.6,-12.1 1.8,-3.5 4.2,-6.2 7.3,-8.1 3.1,-1.9 6.7,-2.9 10.7,-2.9 3.1,0 5.9,0.6 8.5,1.9 2.6,1.3 4.6,3 5.9,5.2 v -5.9 h 16.5 z m -18.9,29.7 c 1.6,-1.9 2.4,-4.4 2.4,-7.7 0,-3.3 -0.8,-5.9 -2.4,-7.8 -1.6,-1.9 -3.9,-2.8 -6.9,-2.8 -2.9,0 -5.1,0.9 -6.8,2.8 -1.6,1.9 -2.4,4.5 -2.4,7.9 0,3.3 0.8,5.8 2.5,7.7 1.7,1.9 3.9,2.8 6.7,2.8 3,-0.1 5.3,-1 6.9,-2.9 z" id="path196"></path>
		<path class="st0" d="m 533.7,33.3 h 17.5 v 15.2 h -17.5 z m 0.4,69.5 V 56.4 h 16.8 v 46.3 h -16.8 z" id="path198"></path>
		<path class="st0" d="m 593.4,78.8 19.7,23.9 h -19.6 l -9.7,-12.2 -9.7,12.2 H 554.6 L 574.3,78.8 555.7,56.4 h 19.7 l 8.4,10.9 8.5,-10.9 H 612 Z" id="path200"></path>
	</g>
	<circle class="st0" cx="69.599998" cy="69.599998" r="62.599998" id="circle204"></circle>
	<path class="st1" d="M 69.6,139.1 C 31.2,139.1 0,107.9 0,69.6 0,31.2 31.2,0 69.6,0 c 38.4,0 69.6,31.2 69.6,69.6 -0.1,38.3 -31.3,69.5 -69.6,69.5 z m 0,-125.3 c -30.7,0 -55.7,25 -55.7,55.7 0,30.7 25,55.7 55.7,55.7 30.7,0 55.7,-25 55.7,-55.7 0,-30.7 -25,-55.7 -55.7,-55.7 z" id="path206"></path>
</g>
</svg>
