<?xml version="1.0" encoding="UTF-8" standalone="no"?>
<svg xmlns:inkscape="http://www.inkscape.org/namespaces/inkscape" xmlns:sodipodi="http://sodipodi.sourceforge.net/DTD/sodipodi-0.dtd" xmlns="http://www.w3.org/2000/svg" xmlns:svg="http://www.w3.org/2000/svg" aria-hidden="true" class="h-5 md:h-6" fill="none" viewBox="0 0 95.536956 55" width="95.536957" height="55" version="1.1" id="svg190" sodipodi:docname="DX_logo.svg" inkscape:version="1.2.2 (b0a84865, 2022-12-01)">
  <defs id="defs194"></defs>
  <g id="g2071" transform="scale(0.31249822)">
    <path d="m 255.596,112.208 44.427,63.793 h -43.288 c -4.691,-5.244 -9.249,-11.557 -13.284,-17.385 -6.192,-8.942 -6.177,-21.215 0.221,-30.012 z" fill="#a3a3a3" id="path182"></path>
    <path d="M 189.525,63.7937 145.098,9.00269e-4 188.386,8.96484e-4 C 193.077,5.24439 197.635,11.5576 201.67,17.3856 c 6.192,8.9422 6.177,21.2155 -0.221,30.0118 z" fill="#a3a3a3" id="path184"></path>
    <path d="M 252.749,10.822 C 257.306,3.41748 262.432,0.569579 270.406,0.569579 L 305.72,0 190.84,169.553 c -2.492,3.677 -6.628,5.877 -11.05,5.877 H 141.254 C 178.1,120.437 217.109,66.5796 252.749,10.822 Z" fill="#212224" id="path186"></path>
    <path d="m 0,175.431 h 62.4564 c 55.8436,0 89.8886,-34.106 89.8886,-87.4574 C 152.345,34.6223 118.3,0.516479 62.4564,0.516479 H 0 L 38.7314,34.8659 H 22.7832 C 10.2004,34.8659 0,45.0663 0,57.6491 v 83.4319 z m 39.9231,-34.35 V 34.8659 h 22.2884 c 31.8405,0 49.7205,20.9508 49.7205,53.1077 0,32.1574 -17.88,53.1074 -49.4756,53.1074 z" fill="#212224" id="path188"></path>
  </g>
</svg>
